PathFileType	4	(X/Y/Z)	5_coords_data.trc
DataRate	CameraRate	NumFrames	NumMarkers	Units	OrigDataRate	OrigDataStartFrame	OrigNumFrames
30.0	30.0	6	21	m	30.0	39	77
Frame#	Time	THUMB_TIP	THUMB_IP	THUMB_MCP	THUMB_CMC	INDEX_TIP	INDEX_DIP	INDEX_PIP	INDEX_MCP	MIDDLE_TIP	MIDDLE_DIP	MIDDLE_PIP	MIDDLE_MCP	RING_TIP	RING_DIP	RING_PIP	RING_MCP	PINKY_TIP	PINKY_DIP	PINKY_PIP	PINKY_MCP	WRIST
X1	Y1	Z1	X2	Y2	Z2	X3	Y3	Z3	X4	Y4	Z4	X5	Y5	Z5	X6	Y6	Z6	X7	Y7	Z7	X8	Y8	Z8	X9	Y9	Z9	X10	Y10	Z10	X11	Y11	Z11	X12	Y12	Z12	X13	Y13	Z13	X14	Y14	Z14	X15	Y15	Z15	X16	Y16	Z16	X17	Y17	Z17	X18	Y18	Z18	X19	Y19	Z19	X20	Y20	Z20	X21	Y21	Z21
38	1.2666666666666666	-0.01212339973449707	-0.0548306999206543	0.9967969970703126	-0.008375399589538575	-0.07629290008544921	1.0033699951171875	-0.022587200164794922	-0.0847791976928711	1.0275899658203125	-0.031175500869750978	-0.05678680038452148	1.0392900390625	-0.018576700210571288	-0.061063301086425784	1.0278399658203126	-0.020357799530029298	-0.06875160217285156	1.010280029296875	-0.02277589988708496	-0.07762249755859375	0.9900280151367188	-0.06247650146484375	-0.07741079711914063	0.9940369873046875	-0.024563400268554688	-0.0528932991027832	1.0211300048828125	-0.021332399368286133	-0.05257469940185547	1.0111699829101561	-0.02197529983520508	-0.058858699798583984	0.9845020141601563	-0.0642384033203125	-0.058515701293945316	0.9880780029296875	-0.027073999404907227	-0.03541210174560547	1.032	-0.02210969924926758	-0.038329498291015625	1.0127899780273437	-0.019512399673461914	-0.04083520126342773	0.9876019897460937	-0.060242698669433596	-0.04019260025024414	0.9872360229492188	-0.03217100143432617	-0.0240393009185791	1.0219000244140626	-0.02082119941711426	-0.024966400146484376	1.0144299926757812	-0.019471399307250975	-0.025151899337768555	0.9957789916992188	-0.048505599975585935	-0.02272360038757324	0.9901710205078125	-0.0503140983581543	-0.028190099716186523	1.0548900146484375
39	1.3	-0.012158499717712403	-0.054434600830078124	0.9967440185546875	-0.008578350067138672	-0.07598989868164062	1.0034199829101562	-0.022673900604248048	-0.08456999969482422	1.0276300048828124	-0.031198600769042968	-0.05656370162963867	1.039300048828125	-0.018265100479125978	-0.05955569839477539	1.02775	-0.020666799545288085	-0.06857450103759766	1.0104199829101563	-0.02289139938354492	-0.07736029815673828	0.990166015625	-0.06240370178222656	-0.07714790344238281	0.9941060180664063	-0.02419580078125	-0.052218299865722656	1.021239990234375	-0.021477100372314453	-0.05241889953613281	1.0113699951171875	-0.021978200912475584	-0.05861069869995117	0.9846510009765626	-0.06431620025634766	-0.05826549911499023	0.9881790161132813	-0.02780179977416992	-0.035461700439453125	1.0327099609375	-0.02212150001525879	-0.03812779998779297	1.0129099731445312	-0.019491800308227537	-0.04060070037841797	0.9877449951171875	-0.06028559875488281	-0.03993379974365235	0.9873670043945313	-0.03238650131225586	-0.024206800460815428	1.0211699829101561	-0.02086000061035156	-0.024888500213623047	1.0140700073242188	-0.019523099899291994	-0.024937000274658203	0.9958939819335938	-0.048503501892089844	-0.022521699905395508	0.9902789916992187	-0.05042520141601563	-0.027936599731445313	1.055
40	1.3333333333333333	-0.01229199981689453	-0.05459989929199219	0.9968209838867188	-0.008677550315856934	-0.07601080322265626	1.0036799926757813	-0.02282889938354492	-0.08460140228271484	1.027760009765625	-0.03146430015563965	-0.05662300109863281	1.03956005859375	-0.01807900047302246	-0.06008720016479492	1.0273499755859374	-0.020639299392700195	-0.0686259994506836	1.010489990234375	-0.023079200744628905	-0.07746600341796875	0.990260986328125	-0.06265129852294922	-0.07721230316162109	0.9944219970703125	-0.02465749931335449	-0.052388301849365236	1.021280029296875	-0.021486700057983397	-0.052404899597167966	1.0114099731445312	-0.02215010070800781	-0.05868040084838867	0.9847009887695313	-0.06446009826660157	-0.0582942008972168	0.98827099609375	-0.02811870002746582	-0.03568550109863281	1.032800048828125	-0.022251100540161134	-0.038135200500488284	1.0130700073242187	-0.019648799896240233	-0.04066680145263672	0.987843994140625	-0.060358501434326174	-0.039955799102783206	0.987405029296875	-0.03234669876098633	-0.02390999984741211	1.02227001953125	-0.021016599655151368	-0.024837900161743164	1.0143499755859375	-0.019656400680541992	-0.02499139976501465	0.9960239868164062	-0.04866339874267578	-0.022518699645996093	0.9903660278320312	-0.0504817008972168	-0.028049299240112305	1.0551199951171875
41	1.3666666666666667	-0.012337300300598144	-0.055042900085449216	0.9969099731445312	-0.009043649673461914	-0.07662989807128906	1.00377001953125	-0.023063199996948242	-0.08509089660644531	1.0278299560546875	-0.03154490089416504	-0.056987201690673825	1.039489990234375	-0.018870599746704103	-0.06014509963989258	1.0275999755859375	-0.0207987003326416	-0.06902220153808594	1.0105700073242188	-0.023330900192260744	-0.07789990234375	0.9903510131835938	-0.06286830139160156	-0.07755590057373046	0.9945599975585937	-0.02466670036315918	-0.053077598571777344	1.0210800170898438	-0.021672500610351562	-0.05278419876098633	1.0113699951171875	-0.022267299652099608	-0.05911100006103515	0.984822998046875	-0.06460209655761719	-0.05858570098876953	0.9882869873046874	-0.0277268009185791	-0.035268001556396485	1.033219970703125	-0.022311300277709962	-0.0384015998840332	1.0131799926757812	-0.019828500747680663	-0.041100399017333984	0.987947021484375	-0.06046149826049805	-0.04028860092163086	0.9874500122070312	-0.032435001373291014	-0.02409309959411621	1.02247998046875	-0.02119420051574707	-0.025271299362182618	1.0143300170898437	-0.019797800064086914	-0.02538559913635254	0.996156982421875	-0.04869419860839844	-0.022902700424194337	0.9904619750976562	-0.05056570053100586	-0.028496400833129883	1.0551700439453124
42	1.4	-0.012616600036621094	-0.0556421012878418	0.9970809936523437	-0.008926119804382324	-0.07702130126953124	1.0041199951171875	-0.02307819938659668	-0.08564900207519531	1.0279100341796874	-0.0318439998626709	-0.0576614990234375	1.0396500244140625	-0.019003400802612303	-0.061236198425292966	1.028260009765625	-0.020865299224853515	-0.06964610290527344	1.0105399780273439	-0.023429399490356446	-0.07852690124511719	0.9903690185546875	-0.06309840011596679	-0.07805359649658203	0.9944520263671875	-0.02475399971008301	-0.05371419906616211	1.0205700073242188	-0.021713899612426757	-0.05343820190429688	1.0114199829101562	-0.02250830078125	-0.05980300140380859	0.9847319946289063	-0.06473639678955079	-0.05906579971313477	0.9882680053710937	-0.028	-0.03617879867553711	1.0329599609375	-0.02234749984741211	-0.03913650131225586	1.0131400146484375	-0.01990719985961914	-0.041758201599121095	0.9880469970703125	-0.06058100128173828	-0.04077640151977539	0.9875360107421876	-0.032732898712158204	-0.02487249946594238	1.0223300170898437	-0.021347299575805664	-0.025793699264526366	1.014760009765625	-0.019923799514770506	-0.025981700897216797	0.996198974609375	-0.04884329986572265	-0.023424699783325197	0.9904550170898437	-0.05075199890136719	-0.028977100372314452	1.05522998046875
43	1.4333333333333333	-0.012530799865722655	-0.056279598236083986	0.9968090209960937	-0.009060040473937988	-0.07798290252685547	1.003719970703125	-0.023287300109863282	-0.08601219940185546	1.02806005859375	-0.032134101867675784	-0.058084800720214845	1.03972998046875	-0.01954240036010742	-0.06212429809570313	1.0275	-0.021295799255371093	-0.07064230346679687	1.0104600219726563	-0.023598199844360353	-0.07930539703369141	0.9903480224609374	-0.06353979873657227	-0.07843589782714844	0.9943079833984375	-0.02537899971008301	-0.05445050048828125	1.0204600219726563	-0.021677799224853515	-0.05417549896240234	1.0113800048828125	-0.022570600509643556	-0.060562000274658204	0.9846929931640624	-0.06486250305175781	-0.059584800720214846	0.988343017578125	-0.027736099243164062	-0.03655210113525391	1.03272998046875	-0.022465999603271485	-0.039771499633789065	1.0131199951171874	-0.0200398006439209	-0.04248410034179687	0.9878909912109375	-0.060563499450683594	-0.041078399658203125	0.9874840087890625	-0.03305039978027344	-0.025880699157714845	1.0216599731445313	-0.021350000381469728	-0.026469200134277344	1.014510009765625	-0.01998740005493164	-0.0266289005279541	0.99614501953125	-0.04896580123901367	-0.023822399139404298	0.9905570068359375	-0.05150609970092773	-0.029173799514770508	1.055510009765625
